<?xml version="1.0" encoding="UTF-8" standalone="no"?>
<!DOCTYPE svg PUBLIC "-//W3C//DTD SVG 1.1//EN" "http://www.w3.org/Graphics/SVG/1.1/DTD/svg11.dtd">
<svg version="1.1" xmlns="http://www.w3.org/2000/svg" xmlns:xlink="http://www.w3.org/1999/xlink" preserveAspectRatio="xMidYMid meet" viewBox="0 0 640 640" width="640" height="640"><defs><path d="M522.49 96.42L527.64 96.95L532.74 97.68L537.77 98.6L542.73 99.73L547.62 101.04L552.42 102.53L557.15 104.21L561.78 106.07L566.33 108.1L570.78 110.3L575.13 112.67L579.38 115.2L583.53 117.88L587.56 120.72L591.47 123.71L595.26 126.84L598.93 130.12L602.48 133.53L605.88 137.07L609.16 140.74L612.29 144.53L615.28 148.44L618.12 152.47L620.8 156.62L623.33 160.87L625.7 165.22L627.9 169.67L629.93 174.22L631.79 178.85L633.47 183.58L634.96 188.38L636.27 193.27L637.4 198.23L638.32 203.26L639.05 208.36L639.58 213.51L639.89 218.73L640 224L639.89 229.27L639.58 234.49L639.05 239.64L638.32 244.74L637.4 249.77L636.27 254.73L634.96 259.62L633.47 264.42L631.79 269.15L629.93 273.78L627.9 278.33L625.7 282.78L623.33 287.13L620.8 291.38L618.12 295.53L615.28 299.56L612.29 303.47L609.16 307.26L605.88 310.93L602.48 314.48L598.93 317.88L595.26 321.16L591.47 324.29L587.56 327.28L583.53 330.12L579.38 332.8L575.13 335.33L570.78 337.7L566.33 339.9L561.78 341.93L557.15 343.79L552.42 345.47L547.62 346.96L542.73 348.27L537.77 349.4L532.74 350.32L527.64 351.05L522.49 351.58L517.27 351.89L512 352L480 352L479.92 355.96L479.68 359.87L479.29 363.74L478.74 367.57L478.05 371.34L477.21 375.06L476.23 378.73L475.1 382.34L473.85 385.88L472.45 389.36L470.93 392.77L469.28 396.11L467.51 399.37L465.61 402.56L463.6 405.67L461.47 408.69L459.23 411.62L456.88 414.47L454.43 417.22L451.88 419.88L449.22 422.43L446.47 424.88L443.62 427.23L440.69 429.47L437.67 431.6L434.56 433.61L431.37 435.51L428.11 437.28L424.77 438.93L421.36 440.45L417.88 441.85L414.34 443.1L410.73 444.23L407.06 445.21L403.34 446.05L399.57 446.74L395.74 447.29L391.87 447.68L387.96 447.92L384 448L192 448L188.04 447.92L184.13 447.68L180.26 447.29L176.43 446.74L172.66 446.05L168.94 445.21L165.27 444.23L161.66 443.1L158.12 441.85L154.64 440.45L151.23 438.93L147.89 437.28L144.63 435.51L141.44 433.61L138.33 431.6L135.31 429.47L132.38 427.23L129.53 424.88L126.78 422.43L124.13 419.88L121.57 417.22L119.12 414.47L116.77 411.62L114.53 408.69L112.4 405.67L110.39 402.56L108.49 399.37L106.72 396.11L105.07 392.77L103.55 389.36L102.15 385.88L100.9 382.34L99.77 378.73L98.79 375.06L97.95 371.34L97.26 367.57L96.71 363.74L96.32 359.87L96.08 355.96L96 352L96 120L96.02 119.01L96.08 118.03L96.18 117.05L96.31 116.1L96.49 115.15L96.69 114.22L96.94 113.3L97.22 112.4L97.53 111.51L97.88 110.64L98.26 109.79L98.67 108.95L99.11 108.13L99.58 107.34L100.09 106.56L100.62 105.81L101.18 105.07L101.76 104.36L102.37 103.68L103.01 103.01L103.68 102.37L104.36 101.76L105.07 101.18L105.81 100.62L106.56 100.09L107.34 99.58L108.13 99.11L108.95 98.67L109.79 98.26L110.64 97.88L111.51 97.53L112.4 97.22L113.3 96.94L114.22 96.69L115.15 96.49L116.1 96.31L117.05 96.18L118.03 96.08L119.01 96.02L120 96L512 96L517.27 96.11L522.49 96.42ZM480 288L512 288L514.63 287.95L517.24 287.79L519.82 287.53L522.37 287.16L524.88 286.7L527.36 286.14L529.81 285.48L532.21 284.73L534.57 283.89L536.89 282.96L539.17 281.95L541.39 280.85L543.57 279.66L545.69 278.4L547.76 277.06L549.78 275.64L551.73 274.14L553.63 272.58L555.47 270.94L557.24 269.24L558.94 267.47L560.58 265.63L562.14 263.73L563.64 261.78L565.06 259.76L566.4 257.69L567.66 255.57L568.85 253.39L569.95 251.17L570.96 248.89L571.89 246.57L572.73 244.21L573.48 241.81L574.14 239.36L574.7 236.88L575.16 234.37L575.53 231.82L575.79 229.24L575.95 226.63L576 224L575.96 222.24L575.84 220.49L575.64 218.74L575.36 217.01L575 215.28L574.56 213.56L574.04 211.85L573.44 210.14L572.76 208.45L572 206.76L571.16 205.08L570.24 203.41L569.24 201.75L568.16 200.1L567 198.45L565.76 196.82L564.44 195.19L563.04 193.57L561.56 191.95L560 190.35L558.36 188.75L556.64 187.17L554.84 185.59L552.96 184.02L551 182.45L548.96 180.9L546.84 179.35L544.64 177.81L542.36 176.28L540 174.76L537.56 173.25L535.04 171.74L532.44 170.25L529.76 168.76L527 167.28L524.16 165.81L521.24 164.34L518.24 162.89L515.16 161.44L512 160L480 160L480 288Z" id="axDEU5Hyu"></path></defs><g><g><g><use xlink:href="#axDEU5Hyu" opacity="1" fill="#86561b" fill-opacity="1"></use><g><use xlink:href="#axDEU5Hyu" opacity="1" fill-opacity="0" stroke="#000000" stroke-width="1" stroke-opacity="0"></use></g></g></g></g></svg>